<?xml version="1.0" encoding="UTF-8" standalone="no"?>
<svg
   xmlns:dc="http://purl.org/dc/elements/1.1/"
   xmlns:cc="http://creativecommons.org/ns#"
   xmlns:rdf="http://www.w3.org/1999/02/22-rdf-syntax-ns#"
   xmlns:svg="http://www.w3.org/2000/svg"
   xmlns="http://www.w3.org/2000/svg"
   width="32"
   height="32"
   viewBox="0 0 8.4666659 8.4666659"
   version="1.1"
   id="svg8">
  <defs
     id="defs2" />
  <metadata
     id="metadata5">
    <rdf:RDF>
      <cc:Work
         rdf:about="">
        <dc:format>image/svg+xml</dc:format>
        <dc:type
           rdf:resource="http://purl.org/dc/dcmitype/StillImage" />
        <dc:title></dc:title>
      </cc:Work>
    </rdf:RDF>
  </metadata>
  <g
     id="layer1">
    <path
       id="rect34"
       style="fill:none;fill-opacity:1;fill-rule:evenodd;stroke:#000000;stroke-width:0.264583;stroke-opacity:1"
       d="m 7.4083327,4.2333331 c 0,1.7589499 -1.4160499,3.1749997 -3.1749997,3.1749997 -1.7589498,0 -3.1749997,-1.4160498 -3.1749997,-3.1749997 0,-1.7589498 1.4160499,-3.1749997 3.1749997,-3.1749997" />
    <path
       style="fill:none;stroke:#000000;stroke-width:0.529167;stroke-linecap:butt;stroke-linejoin:miter;stroke-miterlimit:4;stroke-dasharray:none;stroke-opacity:1"
       d="M 4.2333329,1.0583333 V 4.233333"
       id="path863" />
    <path
       style="fill:#ff0000;stroke:#ff0000;stroke-width:0.52916662;stroke-linecap:butt;stroke-linejoin:miter;stroke-opacity:1;stroke-miterlimit:4;stroke-dasharray:none"
       d="M 4.233333,4.233333 H 7.4083327"
       id="path862" />
    <path
       id="rect34-0"
       style="fill:none;fill-opacity:1;fill-rule:evenodd;stroke:#ff0000;stroke-width:0.264583;stroke-opacity:1"
       d="m 4.2333329,1.0583335 c 1.7589501,0 3.1749997,1.4160499 3.1749997,3.1749997" />
    <path
       style="fill:none;stroke:#ff0000;stroke-width:0.52916662;stroke-linecap:butt;stroke-linejoin:miter;stroke-opacity:1;stroke-miterlimit:4;stroke-dasharray:none"
       d="M 4.233333,1.3229165 V 0.79374993"
       id="path881" />
    <path
       style="fill:none;stroke:#ff0000;stroke-width:0.529167;stroke-linecap:butt;stroke-linejoin:miter;stroke-miterlimit:4;stroke-dasharray:none;stroke-opacity:1"
       d="M 7.1437494,4.233333 H 7.672916"
       id="path881-9" />
    <path
       style="fill:none;stroke:#ff0000;stroke-width:0.529167;stroke-linecap:butt;stroke-linejoin:miter;stroke-miterlimit:4;stroke-dasharray:none;stroke-opacity:1"
       d="M 5.5766021,1.6514437 5.8208328,1.1820094"
       id="path881-3" />
    <path
       style="fill:none;stroke:#ff0000;stroke-width:0.529167;stroke-linecap:butt;stroke-linejoin:miter;stroke-miterlimit:4;stroke-dasharray:none;stroke-opacity:1"
       d="M 6.6857956,2.6661856 7.1316979,2.3812498"
       id="path881-4" />
    <rect
       style="fill:#ffffff;stroke:#000000;stroke-width:0.26458331;stroke-miterlimit:4;stroke-dasharray:none;stroke-opacity:1;fill-opacity:1"
       id="rect940"
       width="3.4395831"
       height="2.1166666"
       x="1.3229165"
       y="5.0270829" />
    <g
       aria-label="90"
       id="text944"
       style="font-style:normal;font-variant:normal;font-weight:bold;font-stretch:normal;font-size:1.85208px;line-height:1.25;font-family:Arial;-inkscape-font-specification:'Arial Bold';fill:#000000;fill-opacity:1;stroke:none;stroke-width:0.264583">
      <path
         d="m 2.1345397,6.4168851 0.2459794,-0.02713 q 0.00904,0.07506 0.047026,0.1112333 0.037982,0.036173 0.1003813,0.036173 0.078677,0 0.1338417,-0.072347 0.055165,-0.072347 0.070538,-0.3002396 -0.09586,0.1112334 -0.239649,0.1112334 -0.1564501,0 -0.2703965,-0.1202767 -0.113042,-0.121181 -0.113042,-0.3147089 0,-0.2016669 0.1193724,-0.3246566 0.1202767,-0.123894 0.3056655,-0.123894 0.2016669,0 0.330987,0.1564501 0.12932,0.1555458 0.12932,0.5127585 0,0.363543 -0.134746,0.5245148 -0.1347461,0.1609718 -0.3508824,0.1609718 -0.1555458,0 -0.2514054,-0.082295 -0.09586,-0.083199 -0.1229897,-0.247788 z M 2.7096974,5.8616228 q 0,-0.1229897 -0.056973,-0.1908149 -0.056069,-0.067825 -0.1302243,-0.067825 -0.070538,0 -0.1175637,0.056069 -0.046121,0.055165 -0.046121,0.1817715 0,0.1284157 0.050643,0.1890062 0.050643,0.059686 0.126607,0.059686 0.073251,0 0.1229897,-0.057878 0.050643,-0.057878 0.050643,-0.1700152 z"
         style="font-style:normal;font-variant:normal;font-weight:bold;font-stretch:normal;font-size:1.85208px;font-family:Arial;-inkscape-font-specification:'Arial Bold';stroke-width:0.264583"
         id="path946" />
      <path
         d="m 3.5887119,5.3922725 q 0.1926235,0 0.3011439,0.137459 0.12932,0.1627805 0.12932,0.5398886 0,0.3762037 -0.1302244,0.5407929 -0.107616,0.1356504 -0.3002395,0.1356504 -0.1935279,0 -0.3119959,-0.1483111 -0.118468,-0.1492155 -0.118468,-0.5308452 0,-0.3743951 0.1302244,-0.5389842 0.1076159,-0.1356504 0.3002395,-0.1356504 z m 0,0.2107102 q -0.046121,0 -0.082295,0.029843 -0.036173,0.028939 -0.056069,0.104903 -0.026226,0.098573 -0.026226,0.3318913 0,0.2333186 0.023513,0.3210392 0.023513,0.086816 0.058782,0.115755 0.036174,0.028939 0.082295,0.028939 0.046121,0 0.082295,-0.028939 0.036173,-0.029843 0.056069,-0.1058073 0.026226,-0.097668 0.026226,-0.3309869 0,-0.2333187 -0.023513,-0.3201349 -0.023513,-0.087721 -0.059686,-0.1166594 -0.035269,-0.029843 -0.08139,-0.029843 z"
         style="font-style:normal;font-variant:normal;font-weight:bold;font-stretch:normal;font-size:1.85208px;font-family:Arial;-inkscape-font-specification:'Arial Bold';stroke-width:0.264583"
         id="path948" />
    </g>
  </g>
</svg>
